<svg xmlns="http://www.w3.org/2000/svg" fill="#000000" height="800" width="800" viewBox="0 0 512 512" xmlns:v="https://vecta.io/nano"><path d="M332.282 170.662H181.946a10.45 10.45 0 0 0-10.449 10.449v150.336a10.45 10.45 0 0 0 10.449 10.449h150.336a10.45 10.45 0 0 0 10.449-10.449V181.111a10.45 10.45 0 0 0-10.449-10.449zm-10.449 150.336H192.395V191.56h129.438v129.438zm179.718-115.663A10.45 10.45 0 0 0 512 194.886a10.45 10.45 0 0 0-10.449-10.449h-34.482v-41.286h34.482A10.45 10.45 0 0 0 512 132.702a10.45 10.45 0 0 0-10.449-10.449h-34.482V90.144c0-24.93-20.279-45.214-45.206-45.214h-29.974V10.449A10.45 10.45 0 0 0 381.44 0a10.45 10.45 0 0 0-10.449 10.449v34.482h-41.287V10.449A10.45 10.45 0 0 0 319.255 0a10.45 10.45 0 0 0-10.449 10.449v34.482h-41.287V10.449A10.45 10.45 0 0 0 257.07 0a10.45 10.45 0 0 0-10.449 10.449v34.482h-41.286V10.449A10.45 10.45 0 0 0 194.886 0a10.45 10.45 0 0 0-10.449 10.449v34.482h-41.286V10.449A10.45 10.45 0 0 0 132.702 0a10.45 10.45 0 0 0-10.449 10.449v34.482H90.144c-24.931 0-45.214 20.284-45.214 45.214v29.967H10.449A10.45 10.45 0 0 0 0 130.56a10.45 10.45 0 0 0 10.449 10.449h34.482v41.287H10.449A10.45 10.45 0 0 0 0 192.745a10.45 10.45 0 0 0 10.449 10.449h34.482v41.286H10.449A10.45 10.45 0 0 0 0 254.929a10.45 10.45 0 0 0 10.449 10.449h34.482v41.287H10.449A10.45 10.45 0 0 0 0 317.114a10.45 10.45 0 0 0 10.449 10.449h34.482v41.286H10.449A10.45 10.45 0 0 0 0 379.298a10.45 10.45 0 0 0 10.449 10.449h34.482v32.114c0 24.928 20.283 45.209 45.214 45.209h29.968v34.482a10.45 10.45 0 0 0 10.449 10.449 10.45 10.45 0 0 0 10.449-10.449V467.07h41.287v34.482a10.45 10.45 0 0 0 10.449 10.449 10.45 10.45 0 0 0 10.449-10.449V467.07h41.287v34.482a10.45 10.45 0 0 0 10.449 10.449 10.45 10.45 0 0 0 10.449-10.449V467.07h41.286v34.482a10.45 10.45 0 0 0 10.449 10.449 10.45 10.45 0 0 0 10.449-10.449V467.07h41.285v34.482a10.45 10.45 0 0 0 10.449 10.449 10.45 10.45 0 0 0 10.449-10.449V467.07h32.116c24.927 0 45.206-20.28 45.206-45.209v-29.972h34.482a10.45 10.45 0 0 0 10.449-10.449 10.45 10.45 0 0 0-10.449-10.449H467.07v-41.287h34.482a10.45 10.45 0 0 0 10.449-10.449 10.45 10.45 0 0 0-10.449-10.449H467.07V267.52h34.482a10.45 10.45 0 0 0 10.449-10.449 10.45 10.45 0 0 0-10.449-10.449H467.07v-41.287h34.481zm-55.38-83.082h-26.805a10.45 10.45 0 0 0-10.449 10.449 10.45 10.45 0 0 0 10.449 10.449h26.805v41.286h-26.805a10.45 10.45 0 0 0-10.449 10.449 10.45 10.45 0 0 0 10.449 10.449h26.805v41.287h-26.805a10.45 10.45 0 0 0-10.449 10.449 10.45 10.45 0 0 0 10.449 10.449h26.805v41.286h-26.805a10.45 10.45 0 0 0-10.449 10.449 10.45 10.45 0 0 0 10.449 10.449h26.805v41.287h-26.805a10.45 10.45 0 0 0-10.449 10.449 10.45 10.45 0 0 0 10.449 10.449h26.805v29.973c0 13.404-10.905 24.31-24.309 24.31h-32.116v-26.805a10.45 10.45 0 0 0-10.449-10.449 10.45 10.45 0 0 0-10.449 10.449v26.805h-41.287v-26.805a10.45 10.45 0 0 0-10.449-10.449 10.45 10.45 0 0 0-10.449 10.449v26.805h-41.286v-26.805a10.45 10.45 0 0 0-10.449-10.449 10.45 10.45 0 0 0-10.449 10.449v26.805h-41.287v-26.805a10.45 10.45 0 0 0-10.449-10.449 10.45 10.45 0 0 0-10.449 10.449v26.805h-41.286v-26.805a10.45 10.45 0 0 0-10.449-10.449 10.45 10.45 0 0 0-10.449 10.449v26.805H90.143c-13.407 0-24.315-10.906-24.315-24.311v-32.114h26.805a10.45 10.45 0 0 0 10.449-10.449 10.45 10.45 0 0 0-10.449-10.449H65.829v-41.286h26.805a10.45 10.45 0 0 0 10.449-10.449 10.45 10.45 0 0 0-10.449-10.449H65.829v-41.287h26.805a10.45 10.45 0 0 0 10.449-10.449 10.45 10.45 0 0 0-10.449-10.449H65.829v-41.286h26.805a10.45 10.45 0 0 0 10.449-10.449 10.45 10.45 0 0 0-10.449-10.449H65.829v-41.287h26.805a10.45 10.45 0 0 0 10.449-10.449 10.45 10.45 0 0 0-10.449-10.449H65.829V90.144c0-13.408 10.908-24.316 24.316-24.316h32.109v26.805a10.45 10.45 0 0 0 10.449 10.449 10.45 10.45 0 0 0 10.449-10.449V65.829h41.287v26.805a10.45 10.45 0 0 0 10.449 10.449 10.45 10.45 0 0 0 10.449-10.449V65.829h41.286v26.805a10.45 10.45 0 0 0 10.449 10.449 10.45 10.45 0 0 0 10.449-10.449V65.829h41.287v26.805a10.45 10.45 0 0 0 10.449 10.449 10.45 10.45 0 0 0 10.449-10.449V65.829h41.287v26.805a10.45 10.45 0 0 0 10.449 10.449 10.45 10.45 0 0 0 10.449-10.449V65.829h29.975c13.402 0 24.306 10.908 24.306 24.316v32.108zM284.212 357.355H181.946a10.45 10.45 0 0 0-10.449 10.449 10.45 10.45 0 0 0 10.449 10.449h102.266a10.45 10.45 0 0 0 10.449-10.449 10.45 10.45 0 0 0-10.449-10.449zm48.07 0h-16.627a10.45 10.45 0 0 0-10.449 10.449 10.45 10.45 0 0 0 10.449 10.449h16.627a10.45 10.45 0 0 0 10.449-10.449 10.45 10.45 0 0 0-10.449-10.449z"/></svg>